<svg width="138px" height="127px" viewBox="0 0 138 127" version="1.1" xmlns="http://www.w3.org/2000/svg"
     xmlns:xlink="http://www.w3.org/1999/xlink">
    <g id="Page-1" stroke="none" stroke-width="1" fill="#ffffff" fill-rule="evenodd">
        <g id="Create-user-2" transform="translate(-792.000000, -240.000000)">
            <g id="BITDUSTIE-04" transform="translate(792.000000, 240.000000)">
                <g id="Group">
                    <path d="M69.7938369,19.8966667 L69.7938369,19.9234903 L70.0611705,20.0576085 L70.0611705,20.0307848 L69.7938369,19.8966667 Z M69.6869035,20.1380794 L70.0611705,20.3258448 L70.0611705,20.2963388 L69.6869035,20.1380794 Z"
                          id="Shape"></path>
                    <path d="M69.7044503,19.8975683 L69.7044503,19.9019823 L69.7263837,19.9328801 L69.7351571,19.946122 L69.7399824,19.95495 L69.7487558,19.9637779 L69.7487558,19.9196382 L69.7044503,19.8975683 Z M67.9760957,18.9927034 L67.9760957,18.987848 L67.9717091,18.987848 L67.9673224,18.983434 L67.962497,18.9790201 L67.9581103,18.9790201 L67.9581103,18.9746061 L67.9493369,18.9697507 L67.9445116,18.9653367 L67.9322289,18.9618056 L67.9449503,18.9750475 L67.9541623,18.9794615 L67.9717091,18.9971174 L67.9804824,18.9971174 L67.9853078,19.0015313 L67.9896945,18.9971174 L67.9896945,18.9927034 L67.9760957,18.9927034 Z"
                          id="Shape"></path>
                    <polygon id="Path"
                             points="69.7044503 19.8966667 69.7044503 19.9010764 69.7263837 19.9319444 69.7351571 19.9451736 69.7399824 19.9539931 69.7487558 19.9628125 69.7487558 19.9187153"></polygon>
                    <polygon id="Shape"
                             points="67.9497756 18.9618056 67.9497756 18.9886292 68.0032423 18.9886292 68.0299757 19.0154528 68.1369091 19.0154528 68.1663158 19.0449588 68.1930492 19.0449588 68.2197825 19.0717825 68.2197825 18.9618056"></polygon>
                    <polygon id="Shape"
                             points="67.9497756 18.9618056 67.9497756 18.9886292 68.0032423 18.9886292 68.0299757 19.0154528 68.1369091 19.0154528 68.1663158 19.0449588 68.1930492 19.0449588 68.2197825 19.0717825 68.2197825 18.9618056"></polygon>
                    <path d="M68.0391623,18.9618056 L68.0391623,18.9886292 L68.092629,18.9886292 L68.1193624,19.0154528 L68.2262958,19.0154528 L68.2557025,19.0449588 L68.2824359,19.0449588 L68.3091692,19.0717825 L68.3091692,18.9618056 L68.0391623,18.9618056 Z M68.2797625,19.149571 L68.2797625,19.120065 L68.1995625,19.0932414 L68.1728291,19.0932414 L68.1728291,19.0664177 L68.116689,19.0664177 L68.116689,19.0395941 L68.0899557,19.0395941 L68.036489,19.0100881 L68.0070823,18.9832645 L67.9322289,18.9618056 L68.0097556,19.0422765 L68.0658957,19.0691001 L68.1728291,19.1763946 L68.2262958,19.1763946 L68.2557025,19.2032183 L68.2824359,19.1763946 L68.3064959,19.1763946 L68.3064959,19.149571 L68.2797625,19.149571 Z"
                          id="Shape"></path>
                    <path d="M68.0391623,18.9618056 L68.0391623,18.9886292 L68.092629,18.9886292 L68.1193624,19.0154528 L68.2262958,19.0154528 L68.2557025,19.0449588 L68.2824359,19.0449588 L68.3091692,19.0717825 L68.3091692,18.9618056 L68.0391623,18.9618056 Z M68.2797625,19.149571 L68.2797625,19.120065 L68.1995625,19.0932414 L68.1728291,19.0932414 L68.1728291,19.0664177 L68.116689,19.0664177 L68.116689,19.0395941 L68.0899557,19.0395941 L68.036489,19.0100881 L68.0070823,18.9832645 L67.9322289,18.9618056 L68.0097556,19.0422765 L68.0658957,19.0691001 L68.1728291,19.1763946 L68.2262958,19.1763946 L68.2557025,19.2032183 L68.2824359,19.1763946 L68.3064959,19.1763946 L68.3064959,19.149571 L68.2797625,19.149571 Z"
                          id="Shape"></path>
                    <path d="M68.0391623,18.9618056 L68.0391623,18.9886292 L68.092629,18.9886292 L68.1193624,19.0154528 L68.2262958,19.0154528 L68.2557025,19.0449588 L68.2824359,19.0449588 L68.3091692,19.0717825 L68.3091692,18.9618056 L68.0391623,18.9618056 Z M68.2797625,19.149571 L68.2797625,19.120065 L68.1995625,19.0932414 L68.1728291,19.0932414 L68.1728291,19.0664177 L68.116689,19.0664177 L68.116689,19.0395941 L68.0899557,19.0395941 L68.036489,19.0100881 L68.0070823,18.9832645 L67.9322289,18.9618056 L68.0097556,19.0422765 L68.0658957,19.0691001 L68.1728291,19.1763946 L68.2262958,19.1763946 L68.2557025,19.2032183 L68.2824359,19.1763946 L68.3064959,19.1763946 L68.3064959,19.149571 L68.2797625,19.149571 Z"
                          id="Shape"></path>
                    <path d="M68.0391623,18.9618056 L68.0391623,18.9886292 L68.092629,18.9886292 L68.1193624,19.0154528 L68.2262958,19.0154528 L68.2557025,19.0449588 L68.2824359,19.0449588 L68.3091692,19.0717825 L68.3091692,18.9618056 L68.0391623,18.9618056 Z M68.2797625,19.149571 L68.2797625,19.120065 L68.1995625,19.0932414 L68.1728291,19.0932414 L68.1728291,19.0664177 L68.116689,19.0664177 L68.116689,19.0395941 L68.0899557,19.0395941 L68.036489,19.0100881 L68.0070823,18.9832645 L67.9322289,18.9618056 L68.0097556,19.0422765 L68.0658957,19.0691001 L68.1728291,19.1763946 L68.2262958,19.1763946 L68.2557025,19.2032183 L68.2824359,19.1763946 L68.3064959,19.1763946 L68.3064959,19.149571 L68.2797625,19.149571 Z"
                          id="Shape"></path>
                    <path d="M68.0391623,18.9618056 L68.0391623,18.9886292 L68.092629,18.9886292 L68.1193624,19.0154528 L68.2262958,19.0154528 L68.2557025,19.0449588 L68.2824359,19.0449588 L68.3091692,19.0717825 L68.3091692,18.9618056 L68.0391623,18.9618056 Z M68.2797625,19.149571 L68.2797625,19.120065 L68.1995625,19.0932414 L68.1728291,19.0932414 L68.1728291,19.0664177 L68.116689,19.0664177 L68.116689,19.0395941 L68.0899557,19.0395941 L68.036489,19.0100881 L68.0070823,18.9832645 L67.9322289,18.9618056 L68.0097556,19.0422765 L68.0658957,19.0691001 L68.1728291,19.1763946 L68.2262958,19.1763946 L68.2557025,19.2032183 L68.2824359,19.1763946 L68.3064959,19.1763946 L68.3064959,19.149571 L68.2797625,19.149571 Z"
                          id="Shape"></path>
                    <path d="M68.0391623,18.9618056 L68.0391623,18.9886292 L68.092629,18.9886292 L68.1193624,19.0154528 L68.2262958,19.0154528 L68.2557025,19.0449588 L68.2824359,19.0449588 L68.3091692,19.0717825 L68.3091692,18.9618056 L68.0391623,18.9618056 Z M68.2797625,19.149571 L68.2797625,19.120065 L68.1995625,19.0932414 L68.1728291,19.0932414 L68.1728291,19.0664177 L68.116689,19.0664177 L68.116689,19.0395941 L68.0899557,19.0395941 L68.036489,19.0100881 L68.0070823,18.9832645 L67.9322289,18.9618056 L68.0097556,19.0422765 L68.0658957,19.0691001 L68.1728291,19.1763946 L68.2262958,19.1763946 L68.2557025,19.2032183 L68.2824359,19.1763946 L68.3064959,19.1763946 L68.3064959,19.149571 L68.2797625,19.149571 Z"
                          id="Shape"></path>
                    <path d="M68.0391623,18.9618056 L68.0391623,18.9886292 L68.092629,18.9886292 L68.1193624,19.0154528 L68.2262958,19.0154528 L68.2557025,19.0449588 L68.2824359,19.0449588 L68.3091692,19.0717825 L68.3091692,18.9618056 L68.0391623,18.9618056 Z M68.2797625,19.149571 L68.2797625,19.120065 L68.1995625,19.0932414 L68.1728291,19.0932414 L68.1728291,19.0664177 L68.116689,19.0664177 L68.116689,19.0395941 L68.0899557,19.0395941 L68.036489,19.0100881 L68.0070823,18.9832645 L67.9322289,18.9618056 L68.0097556,19.0422765 L68.0658957,19.0691001 L68.1728291,19.1763946 L68.2262958,19.1763946 L68.2557025,19.2032183 L68.2824359,19.1763946 L68.3064959,19.1763946 L68.3064959,19.149571 L68.2797625,19.149571 Z"
                          id="Shape"></path>
                    <path d="M68.0391623,18.9618056 L68.0391623,18.9886292 L68.092629,18.9886292 L68.1193624,19.0154528 L68.2262958,19.0154528 L68.2557025,19.0449588 L68.2824359,19.0449588 L68.3091692,19.0717825 L68.3091692,18.9618056 L68.0391623,18.9618056 Z M68.2797625,19.149571 L68.2797625,19.120065 L68.1995625,19.0932414 L68.1728291,19.0932414 L68.1728291,19.0664177 L68.116689,19.0664177 L68.116689,19.0395941 L68.0899557,19.0395941 L68.036489,19.0100881 L68.0070823,18.9832645 L67.9322289,18.9618056 L68.0097556,19.0422765 L68.0658957,19.0691001 L68.1728291,19.1763946 L68.2262958,19.1763946 L68.2557025,19.2032183 L68.2824359,19.1763946 L68.3064959,19.1763946 L68.3064959,19.149571 L68.2797625,19.149571 Z"
                          id="Shape"></path>
                    <path d="M68.0391623,18.9618056 L68.0391623,18.9886292 L68.092629,18.9886292 L68.1193624,19.0154528 L68.2262958,19.0154528 L68.2557025,19.0449588 L68.2824359,19.0449588 L68.3091692,19.0717825 L68.3091692,18.9618056 L68.0391623,18.9618056 Z M68.2797625,19.149571 L68.2797625,19.120065 L68.1995625,19.0932414 L68.1728291,19.0932414 L68.1728291,19.0664177 L68.116689,19.0664177 L68.116689,19.0395941 L68.0899557,19.0395941 L68.036489,19.0100881 L68.0070823,18.9832645 L67.9322289,18.9618056 L68.0097556,19.0422765 L68.0658957,19.0691001 L68.1728291,19.1763946 L68.2262958,19.1763946 L68.2557025,19.2032183 L68.2824359,19.1763946 L68.3064959,19.1763946 L68.3064959,19.149571 L68.2797625,19.149571 Z"
                          id="Shape"></path>
                    <path d="M68.0391623,18.9618056 L68.0391623,18.9886292 L68.092629,18.9886292 L68.1193624,19.0154528 L68.2262958,19.0154528 L68.2557025,19.0449588 L68.2824359,19.0449588 L68.3091692,19.0717825 L68.3091692,18.9618056 L68.0391623,18.9618056 Z M68.2797625,19.149571 L68.2797625,19.120065 L68.1995625,19.0932414 L68.1728291,19.0932414 L68.1728291,19.0664177 L68.116689,19.0664177 L68.116689,19.0395941 L68.0899557,19.0395941 L68.036489,19.0100881 L68.0070823,18.9832645 L67.9322289,18.9618056 L68.0097556,19.0422765 L68.0658957,19.0691001 L68.1728291,19.1763946 L68.2262958,19.1763946 L68.2557025,19.2032183 L68.2824359,19.1763946 L68.3064959,19.1763946 L68.3064959,19.149571 L68.2797625,19.149571 Z"
                          id="Shape"></path>
                    <path d="M69.7614772,19.9417081 L69.7566518,19.9372941 L69.7478785,19.9019823 L69.7478785,19.8975683 L69.6908515,19.8799124 L69.7040116,19.8975683 L69.7040116,19.9019823 L69.725945,19.9328801 L69.7347184,19.946122 L69.7395438,19.95495 L69.7483171,19.95495 L69.7702506,19.9637779 L69.7614772,19.9417081 Z M67.9497756,18.9618056 L67.9497756,18.9662195 L67.958549,18.9662195 L67.9629357,18.9706335 L67.9804824,18.9706335 L67.9853078,18.9754889 L67.9896945,18.9754889 L67.9940812,18.9799029 L67.9940812,18.9618056 L67.9497756,18.9618056 Z M67.9892558,18.9927034 L67.9892558,18.987848 L67.9760957,18.983434 L67.9717091,18.983434 L67.9717091,18.9790201 L67.962497,18.9790201 L67.962497,18.9746061 L67.9581103,18.9746061 L67.9493369,18.9697507 L67.9445116,18.9653367 L67.9322289,18.9618056 L67.9449503,18.9750475 L67.9541623,18.9794615 L67.9717091,18.9971174 L67.9804824,18.9971174 L67.9853078,19.0015313 L67.9896945,18.9971174 L67.9936425,18.9971174 L67.9936425,18.9927034 L67.9892558,18.9927034 Z"
                          id="Shape"></path>
                    <path d="M67.9892558,18.9618056 L67.9848691,18.9662588 L67.9804824,18.9618056 L67.9497756,18.9618056 L67.9497756,18.9662588 L67.958549,18.9662588 L67.9629357,18.970712 L67.9804824,18.970712 L67.9853078,18.9756105 L67.9896945,18.9756105 L67.9940812,18.9800637 L67.9940812,18.9618056 L67.9892558,18.9618056 Z M67.9892558,18.992978 L67.9892558,18.9880795 L67.9760957,18.9836263 L67.9717091,18.9836263 L67.9717091,18.9791731 L67.962497,18.9791731 L67.962497,18.9747199 L67.9581103,18.9747199 L67.9493369,18.9698213 L67.9445116,18.9653681 L67.9322289,18.9618056 L67.9449503,18.9751652 L67.9541623,18.9796184 L67.9717091,18.9974312 L67.9804824,18.9974312 L67.9853078,19.0018845 L67.9896945,18.9974312 L67.9936425,18.9974312 L67.9936425,18.992978 L67.9892558,18.992978 Z M69.4237023,19.7589303 L69.4061556,19.7589303 L69.5114361,19.8034624 L69.4237023,19.7589303 Z M69.7570905,19.9459651 L69.7483171,19.9103394 L69.7483171,19.9058862 L69.6912902,19.8880734 L69.7044503,19.9058862 L69.7044503,19.9103394 L69.7263837,19.9415119 L69.7351571,19.9548715 L69.7619159,19.9637779 L69.7570905,19.9459651 Z"
                          id="Shape"></path>
                    <polygon id="Shape"
                             points="69.513089 19.7511458 69.4061556 19.7511458 70.0477562 20.0193822"></polygon>
                    <polygon id="Shape"
                             points="69.513089 19.7511458 69.4061556 19.7511458 70.0477562 20.0193822"></polygon>
                    <path d="M69.9093343,19.7511458 L69.8598906,19.7511458 L70.1565531,20.0193822 L69.9093343,19.7511458 Z M69.2294826,19.9925586 L69.2554406,19.9120876 L69.2801625,19.885264 L69.2059969,19.8316167 L69.1565531,19.8021107 L69.2183578,20.0462058 L69.2925234,20.3144422 L69.2294826,19.9925586 Z"
                          id="Shape"></path>
                    <polygon id="Shape"
                             points="69.2630479 19.7890303 69.1561144 19.7595243 69.2897812 20.0036194 69.3165146 19.9472898 69.3726546 19.8668188 69.4261214 19.8399952"></polygon>
                    <polygon id="Path"
                             points="69.6912902 19.8790278 69.7044503 19.8966667 69.7044503 19.9010764 69.7263837 19.9319444 69.7351571 19.9451736 69.7443691 19.9451736 69.7487558 19.9359132 69.7487558 19.8962257"></polygon>
                    <polygon id="Path"
                             points="69.7483171 19.9010764 69.7483171 19.8966667 69.6912902 19.8790278 69.7044503 19.8966667 69.7044503 19.9010764 69.7263837 19.9319444 69.7483171 19.9319444 69.7483171 19.9363542 69.7570905 19.9363542 69.7619159 19.9407639 69.788236 19.9456146"></polygon>
                    <polygon id="Path"
                             points="69.6912902 19.8790278 69.7044503 19.8966667 69.7044503 19.9010764 69.7263837 19.9319444 69.7483171 19.9319444 69.7483171 19.8966667"></polygon>
                    <polygon id="Path"
                             points="69.6912902 19.8790278 69.7044503 19.8966667 69.7044503 19.9010764 69.7263837 19.9319444 69.7483171 19.9319444 69.7483171 19.8966667"></polygon>
                    <polygon id="Shape"
                             points="69.6912902 19.8790278 69.7714903 19.9863223 69.7714903 20.013146 69.9051571 20.2009114 70.0388239 20.2009114 70.0388239 19.9863223"></polygon>
                    <polygon id="Shape"
                             points="69.6912902 19.8790278 69.7714903 19.9863223 69.7714903 20.013146 69.9051571 20.2009114 70.0388239 20.2009114 70.0388239 19.9863223"></polygon>
                    <polygon id="Shape"
                             points="69.6912902 19.8790278 69.7714903 19.9863223 69.7714903 20.013146 69.9051571 20.2009114 70.0388239 20.2009114 70.0388239 19.9863223"></polygon>
                    <polygon id="Shape"
                             points="69.6912902 19.8790278 69.7714903 19.9863223 69.7714903 20.013146 69.9051571 20.2009114 70.0388239 20.2009114 70.0388239 19.9863223"></polygon>
                    <path d="M128.687838,47.8366667 C126.757696,47.8366667 124.959155,48.4319792 123.471629,49.4457743 L69.7483171,20.0510069 L69.7483171,19.9760417 L69.6211032,19.9187153 L69.6825168,19.9279757 L69.7483171,19.9323854 L69.7483171,19.9015174 L69.7483171,19.8971076 L69.7132236,19.844191 L69.7592838,19.844191 L69.7132236,19.844191 L69.7483171,19.844191 L69.7483171,19.8706493 L69.7176103,19.844191 L69.7483171,19.844191 L69.7483171,19.8177326 C69.3096485,8.89044097 60.3257143,0.128322917 49.3546111,0.128322917 C38.12908,0.128322917 28.9696784,9.30936458 28.9696784,20.5982535 C28.9696784,26.7542257 31.6806507,32.2840174 35.9708302,36.0415417 L19.0952468,49.323184 C17.6476402,48.3839132 15.9192857,47.8375486 14.0724907,47.8375486 C8.94884069,47.8375486 4.77710172,52.0267847 4.77710172,57.181309 C4.77710172,62.3318646 8.944454,66.5211007 14.0685426,66.5211007 C19.1921926,66.5211007 23.3634929,62.3318646 23.3634929,57.181309 C23.3634929,55.196934 22.7449701,53.3580799 21.6921653,51.8455451 L38.9844839,38.2327326 C42.0156844,40.0318993 45.5469671,41.068184 49.3151309,41.068184 C52.9433594,41.068184 56.3557629,40.1068646 59.308003,38.4267604 L68.7174458,48.5999896 C64.1592397,51.9165417 61.1898915,57.309191 61.1898915,63.3857882 C61.1898915,68.024816 62.9226328,72.2709375 65.7691537,75.4904757 L44.5244304,95.6737743 C41.5678037,93.3366215 37.8435067,91.9431493 33.8033684,91.9431493 C24.2184581,91.9431493 16.4145426,99.7880451 16.4145426,109.427698 C16.4145426,119.06691 24.2184581,126.907837 33.8033684,126.907837 C42.3666193,126.907837 49.5081451,120.654851 50.9382049,112.448358 L78.4690501,112.448358 C79.3025206,119.450997 85.2508676,124.897003 92.4362603,124.897003 C100.192361,124.897003 106.504364,118.550972 106.504364,110.755024 C106.504364,102.954226 100.191922,96.6086354 92.4362603,96.6086354 C85.2991212,96.6086354 79.3814809,101.983646 78.4865969,108.92058 L51.1882461,108.92058 C51.0737536,104.837177 49.55596,101.097733 47.1038022,98.1784965 L68.4011657,77.9422813 C71.4455262,80.2617951 75.2356234,81.6376285 79.3415621,81.6376285 C89.3563676,81.6376285 97.498058,73.4487743 97.498058,63.3857882 C97.498058,53.3228021 89.3563676,45.1383576 79.3415621,45.1383576 C76.6876167,45.1383576 74.1652719,45.7116215 71.8929682,46.7474653 L62.2909499,36.3625694 C65.98454,33.2850243 68.5770718,28.9233681 69.3973822,23.9668403 L69.3096485,23.9492014 L69.3096485,23.9315625 C69.3096485,23.9271528 69.3096485,23.9271528 69.3096485,23.9227431 L69.3096485,23.8742361 L69.3973822,23.9187743 L69.4061556,23.923184 L69.4193156,23.9320035 L120.870763,52.0347222 L120.87515,52.0347222 L120.919455,52.0567708 C119.954384,53.5252083 119.392888,55.2890972 119.392888,57.1808681 C119.392888,62.3314236 123.564627,66.5206597 128.688277,66.5206597 C133.811927,66.5206597 137.979279,62.3314236 137.979279,57.1808681 C137.978841,52.0259028 133.811488,47.8366667 128.687838,47.8366667 Z M14.068104,62.9223264 C10.9180243,62.9223264 8.35619933,60.3466076 8.35619933,57.1804271 C8.35619933,54.0142465 10.9180243,51.4389687 14.068104,51.4389687 C17.217745,51.4389687 19.7795699,54.0142465 19.7795699,57.1804271 C19.7795699,60.3466076 17.217745,62.9223264 14.068104,62.9223264 Z M33.803807,121.505486 C27.1799102,121.505486 21.7886724,116.085938 21.7886724,109.427257 C21.7886724,102.764167 27.1799102,97.3446181 33.803807,97.3446181 C40.4320905,97.3446181 45.8233283,102.764167 45.8233283,109.427257 C45.8233283,116.085938 40.4320905,121.505486 33.803807,121.505486 Z M92.4362603,102.014514 C97.2313474,102.014514 101.130673,105.935198 101.130673,110.754583 C101.130673,115.573969 97.2309088,119.494653 92.4362603,119.494653 C87.6416118,119.494653 83.7422861,115.573969 83.7422861,110.754583 C83.7422861,105.935198 87.6416118,102.014514 92.4362603,102.014514 Z M79.3420007,50.5354167 C86.3914061,50.5354167 92.1248055,56.3033333 92.1248055,63.3857882 C92.1248055,70.4717708 86.3918448,76.2357188 79.3420007,76.2357188 C72.2965434,76.2357188 66.559196,70.4722118 66.559196,63.3857882 C66.559196,56.3033333 72.296982,50.5354167 79.3420007,50.5354167 Z M49.3151309,35.6658333 C41.0506133,35.6658333 34.3258227,28.9057292 34.3258227,20.5978125 C34.3258227,12.2898958 41.0506133,5.52979167 49.3151309,5.52979167 C57.5796485,5.52979167 64.304439,12.2898958 64.304439,20.5978125 C64.304439,28.9057292 57.5796485,35.6658333 49.3151309,35.6658333 Z M67.9936425,18.9970833 L67.9892558,18.9970833 L67.9848691,19.0014931 L67.9800438,18.9970833 L67.9712704,18.9970833 L67.9537236,18.9794444 L67.9445116,18.9750347 L67.9322289,18.9618056 L67.9449503,18.9662153 L67.9497756,18.970625 L67.958549,18.9754757 L67.9629357,18.9754757 L67.9629357,18.9798854 L67.9721477,18.9798854 L67.9721477,18.9842951 L67.9765344,18.9842951 L67.9896945,18.9887049 L67.9896945,18.9935556 L67.9936425,18.9935556 L67.9936425,18.9970833 Z M67.9936425,18.9794444 L67.9892558,18.9750347 L67.9848691,18.9750347 L67.9800438,18.970184 L67.962497,18.970184 L67.9581103,18.9657743 L67.9493369,18.9657743 L67.9493369,18.9618056 L67.9932038,18.9618056 L67.9932038,18.9794444 L67.9936425,18.9794444 Z M69.1780479,19.7996528 L69.1561144,19.7595243 L69.1736612,19.764375 L69.1999813,19.7731944 L69.1912079,19.7776042 L69.1819959,19.7908333 L69.2039293,19.84375 L69.1780479,19.7996528 Z M69.4061556,19.7511458 L69.4237023,19.7511458 L69.5114361,19.7952431 L69.4061556,19.7511458 Z M128.687838,62.9223264 C125.537759,62.9223264 122.975934,60.3466076 122.975934,57.1804271 C122.975934,54.0142465 125.537759,51.4389687 128.687838,51.4389687 C131.837479,51.4389687 134.399304,54.0142465 134.399304,57.1804271 C134.399304,60.3466076 131.837479,62.9223264 128.687838,62.9223264 Z"
                          id="Shape"></path>
                    <ellipse id="Oval" cx="106.898289" cy="22.9658333" rx="4.73586687" ry="4.76073611"></ellipse>
                    <path d="M79.2095228,92.1486424 C79.2095228,95.4122778 76.5788269,98.0559063 73.3339948,98.0559063 C70.087408,98.0559063 67.4575894,95.4122778 67.4575894,92.1486424 C67.4575894,88.8872118 70.0869693,86.2427014 73.3339948,86.2427014 C76.5788269,86.2427014 79.2095228,88.8872118 79.2095228,92.1486424 Z"
                          id="Path"></path>
                    <path d="M20.8139506,27.7675799 C20.8139506,30.3970972 18.693865,32.5287569 16.0780838,32.5287569 C13.4631799,32.5287569 11.3422169,30.3970972 11.3422169,27.7675799 C11.3422169,25.1393854 13.4631799,23.0081667 16.0780838,23.0081667 C18.693865,23.0081667 20.8139506,25.1393854 20.8139506,27.7675799 Z"
                          id="Path"></path>
                    <ellipse id="Oval" cx="111.760931" cy="83.7970694" rx="3.62735116" ry="3.64639931"></ellipse>
                    <path d="M44.1375247,75.533691 C44.1375247,78.2941771 41.9117199,80.5307882 39.1652154,80.5307882 C36.4195883,80.5307882 34.1937835,78.2941771 34.1937835,75.533691 C34.1937835,72.7723229 36.4195883,70.5357118 39.1652154,70.5357118 C41.9117199,70.5357118 44.1375247,72.7723229 44.1375247,75.533691 Z"
                          id="Path"></path>
                    <path d="M22.8537599,78.3775208 C22.8537599,80.4747847 21.1640082,82.1729688 19.0781387,82.1729688 C16.9922693,82.1729688 15.3007629,80.4743438 15.3007629,78.3775208 C15.3007629,76.2806979 16.9918306,74.580309 19.0781387,74.580309 C21.1644469,74.580309 22.8537599,76.2802569 22.8537599,78.3775208 Z"
                          id="Path"></path>
                    <ellipse id="Oval" cx="3.28255759" cy="41.8553194" rx="3.28255759" ry="3.29979514"></ellipse>
                    <ellipse id="Oval" cx="63.5446649" cy="122.603066" rx="3.25185079" ry="3.26892708"></ellipse>
                    <ellipse id="Oval" cx="102.381318" cy="54.3343924" rx="3.25228945" ry="3.26936806"></ellipse>
                    <ellipse id="Oval" cx="41.7551152" cy="53.9150278" rx="3.25272812" ry="3.26980903"></ellipse>
                    <ellipse id="Oval" cx="79.6648609" cy="12.1007188" rx="3.25185079" ry="3.26892708"></ellipse>
                </g>
                <g id="Group" transform="translate(67.000000, 20.000000)">
                    <path d="M56.6909452,31.7413793 L56.6822154,31.7369093" id="Path"></path>
                    <path d="M0.349189684,0.339719029 L0.323000458,0.326309068" id="Path"></path>
                    <path d="" id="Path"></path>
                </g>
            </g>
        </g>
    </g>
</svg>